<svg xmlns="http://www.w3.org/2000/svg" width="602" height="602" viewBox="0 0 602 602">
  <g id="Grupo_78" data-name="Grupo 78" transform="translate(-314 -247)">
    <rect id="Retângulo_92" data-name="Retângulo 92" width="602" height="602" transform="translate(916 247) rotate(90)" fill="#ff9797"/>
    <rect id="Retângulo_91" data-name="Retângulo 91" width="591.25" height="301" transform="translate(615 257.75) rotate(90)" fill="#ab97ff"/>
    <rect id="Retângulo_90" data-name="Retângulo 90" width="602" height="54" transform="translate(314 795)" fill="#ab97ff"/>
    <rect id="Retângulo_94" data-name="Retângulo 94" width="301" height="309" transform="translate(615 540)" fill="#ccbfff"/>
    <g id="Grupo_77" data-name="Grupo 77">
      <rect id="Retângulo_83" data-name="Retângulo 83" width="494" height="494" transform="translate(368 301)" fill="#1c1c1c"/>
    </g>
    <rect id="Retângulo_89" data-name="Retângulo 89" width="602" height="54" transform="translate(314 247)" fill="#ff9797"/>
    <rect id="Retângulo_93" data-name="Retângulo 93" width="301" height="54" transform="translate(314 247)" fill="#ffc5c5"/>
    <path id="Caminho_28" data-name="Caminho 28" d="M110.488,0A153.832,153.832,0,0,0,84.712,2.2C61.886,6.237,57.741,14.676,57.741,30.244V50.8h53.942v6.852H37.5C21.82,57.656,8.091,67.079,3.8,85c-4.953,20.547-5.172,33.369,0,54.823,3.835,15.97,12.992,27.349,28.669,27.349H51.014V142.532c0-17.8,15.4-33.509,33.7-33.509h53.879a27.176,27.176,0,0,0,26.971-27.411V30.242c0-14.618-12.333-25.6-26.971-28.041a168.268,168.268,0,0,0-28.1-2.2ZM81.316,16.535A10.281,10.281,0,1,1,71.194,26.846,10.234,10.234,0,0,1,81.316,16.535Z" transform="translate(395.531 409.001) rotate(-30)" fill="#fff"/>
    <text id="PF" transform="translate(561 629)" fill="#fff" font-size="203" font-family="Ubuntu-Medium, Ubuntu" font-weight="500"><tspan x="0" y="0">PF</tspan></text>
    <rect id="Retângulo_95" data-name="Retângulo 95" width="178" height="34" transform="translate(621 727)" fill="#fff"/>
  </g>
</svg>
